<svg width="95" height="102" viewBox="0 0 95 102" fill="none" xmlns="http://www.w3.org/2000/svg">
<path d="M45.846 0.631409C35.0835 1.0425 24.429 5.46891 15.9518 13.9102L37.6424 37.3594C44.4244 29.0074 47.5261 16.5736 45.846 0.631409ZM49.7756 0.656486C51.4333 17.3452 48.0861 31.0221 40.405 40.3467L47.5001 48.0164L79.0484 13.9102C70.7343 5.6311 60.3263 1.21196 49.7756 0.656486ZM13.192 16.8938C5.38365 26.0583 1.28944 37.5766 0.90918 49.2117C15.6557 51.0281 27.1568 47.6749 34.8828 40.343L13.192 16.8938ZM81.8082 16.8938L50.26 51L57.3514 58.6664C64.6824 51.6089 74.9228 47.9367 87.309 48.0938C89.4961 48.1214 91.7512 48.2702 94.0679 48.5391C93.5541 37.1332 89.4659 25.8816 81.808 16.8938H81.8082ZM37.6456 43.3294C29.0204 51.6333 16.3692 55.252 0.932377 53.4598C1.44619 64.8659 5.53411 76.118 13.1922 85.1063L44.7403 51L37.6456 43.3294ZM86.4254 52.2989C75.3145 52.3088 66.449 55.6481 60.1175 61.657L81.808 85.1063C89.6164 75.9417 93.7106 64.4234 94.0909 52.7883C91.4297 52.4602 88.8717 52.297 86.4249 52.2991L86.4254 52.2989ZM47.5001 53.9836L15.9518 88.0899C24.266 96.3689 34.674 100.788 45.2246 101.344C43.567 84.6551 46.9141 70.9781 54.5952 61.6535L47.5001 53.9836ZM57.3579 64.6406C50.5758 72.9926 47.4741 85.4264 49.1543 101.369C59.9167 100.958 70.5712 96.5311 79.0484 88.0899L57.3579 64.6406Z" fill="#FF9A62"/>
</svg>
