<svg width="121" height="121" viewBox="0 0 121 121" fill="none" xmlns="http://www.w3.org/2000/svg">
<path d="M1.1333 60.5C1.1333 76.245 7.38799 91.3452 18.5214 102.479C29.6548 113.612 44.7549 119.867 60.5 119.867C76.245 119.867 91.3451 113.612 102.479 102.479C113.612 91.3452 119.867 76.245 119.867 60.5C119.867 52.7039 118.331 44.9841 115.348 37.7814C112.364 30.5787 107.991 24.0341 102.479 18.5214C96.9658 13.0087 90.4213 8.6358 83.2186 5.65235C76.0159 2.6689 68.2961 1.13333 60.5 1.13333C52.7038 1.13333 44.984 2.6689 37.7813 5.65235C30.5786 8.6358 24.0341 13.0087 18.5214 18.5214C13.0087 24.0341 8.63577 30.5787 5.65232 37.7814C2.66886 44.9841 1.1333 52.7039 1.1333 60.5Z" stroke="#45413C" stroke-width="1.04167" stroke-linecap="round" stroke-linejoin="round"/>
</svg>
