<svg width="15" height="18" viewBox="0 0 27 40" fill="none" xmlns="http://www.w3.org/2000/svg">
<g clip-path="url(#clip0_1066_2580)">
<path d="M6.66838 40C10.3484 40 13.335 37.0133 13.335 33.3333V26.6666H6.66838C2.98838 26.6666 0.00170898 29.6533 0.00170898 33.3333C0.00170898 37.0133 2.98838 40 6.66838 40Z" fill="#0ACF83"/>
<path d="M0.00170898 20C0.00170898 16.32 2.98838 13.3334 6.66838 13.3334H13.335V26.6667H6.66838C2.98838 26.6667 0.00170898 23.68 0.00170898 20Z" fill="#A259FF"/>
<path d="M0.00170898 6.66667C0.00170898 2.98667 2.98838 0 6.66838 0H13.335V13.3333H6.66838C2.98838 13.3333 0.00170898 10.3467 0.00170898 6.66667Z" fill="#F24E1E"/>
<path d="M13.335 0H20.0016C23.6816 0 26.6683 2.98667 26.6683 6.66667C26.6683 10.3467 23.6816 13.3333 20.0016 13.3333H13.335V0Z" fill="#FF7262"/>
<path d="M26.6683 20C26.6683 23.68 23.6816 26.6667 20.0016 26.6667C16.3216 26.6667 13.335 23.68 13.335 20C13.335 16.32 16.3216 13.3334 20.0016 13.3334C23.6816 13.3334 26.6683 16.32 26.6683 20Z" fill="#1ABCFE"/>
</g>
<defs>
<clipPath id="clip0_1066_2580">
<rect width="26.67" height="40" fill="white"/>
</clipPath>
</defs>
</svg>
